Coordinates
version=1
nRows=9
nColumns=36
inDegrees=yes

Units are S.I. units (second, meters, Newtons, ...)
If the header above contains a line with 'inDegrees', this indicates whether rotational values are in degrees (yes) or radians (no).

endheader
time	pelvis_tilt	pelvis_list	pelvis_rotation	pelvis_tx	pelvis_ty	pelvis_tz	hip_flexion_r	hip_adduction_r	hip_rotation_r	knee_angle_r	knee_angle_r_beta	ankle_angle_r	subtalar_angle_r	mtp_angle_r	hip_flexion_l	hip_adduction_l	hip_rotation_l	knee_angle_l	knee_angle_l_beta	ankle_angle_l	subtalar_angle_l	mtp_angle_l	lumbar_extension	lumbar_bending	lumbar_rotation	arm_flex_r	arm_add_r	arm_rot_r	elbow_flex_r	pro_sup_r	arm_flex_l	arm_add_l	arm_rot_l	elbow_flex_l	pro_sup_l
      5.20000000	     -1.77978521	      6.60129352	     -1.26626178	      0.90924207	      0.88211329	      0.12355122	     48.14321355	    -22.10902680	     -3.79167791	     22.10696546	      0.38583933	      3.34997123	     24.59251632	     -7.49999987	     32.47114367	     18.71946489	     10.62437363	     56.43062179	      0.98490015	     27.72883889	     -8.53561059	     -7.49999987	    -27.87197773	     -6.95523214	    -10.43980683	     67.91134452	      9.33053056	     68.39563266	    106.81309479	     82.40942471	     78.34032859	    -23.59741194	     68.49318665	    129.46128359	     85.55462757
      5.21666670	     -1.31971624	      6.02989264	     -1.23345870	      0.91533183	      0.88576153	      0.12104965	     46.05483141	    -21.70768390	     -4.36763336	     20.94035074	      0.36547807	      3.56057038	     24.63927923	     -7.49999987	     30.28891526	     18.25181017	     11.65007454	     54.49555769	      0.95112691	     27.25255837	     -8.76262177	     -7.49999987	    -27.08340013	     -6.53441508	    -10.17085177	     67.23452143	      9.00433856	     68.40728166	    107.75606577	     82.66507865	     77.63940866	    -22.93230934	     68.23822295	    129.69210649	     85.79076452
      5.23333330	     -1.27524284	      5.69537258	     -1.19315399	      0.91574837	      0.88874707	      0.12113358	     45.11801064	    -21.46182112	     -4.39907903	     20.49766028	      0.35775166	      3.85383214	     24.35667352	     -7.49999987	     29.01645375	     17.88258502	     12.20088088	     52.90203555	      0.92331470	     26.88985648	     -8.73166214	     -7.49999987	    -25.94032403	     -6.35211830	    -10.14258506	     66.80443985	      9.09258801	     67.99364732	    107.70483835	     82.80947983	     77.44619603	    -22.90335190	     68.39849073	    129.67565535	     86.02757113
      5.25000000	     -0.99029160	      5.19024761	     -1.17386726	      0.91682466	      0.89355153	      0.12066958	     43.90165901	    -21.07748784	     -4.71101950	     20.15940443	      0.35184798	      4.10629420	     23.85863726	     -7.49999987	     27.61912111	     17.41339330	     12.88313609	     51.48351282	      0.89855681	     26.44124809	     -9.15467373	     -7.49999987	    -25.48137658	     -5.93393481	    -10.18082928	     66.77648466	      9.04857183	     67.47376875	    108.07447825	     81.70419391	     77.67190540	    -22.86655782	     68.10223617	    129.53134377	     84.93842584
      5.26666670	     -0.79464455	      4.63447248	     -1.20516713	      0.92136809	      0.90152483	      0.12291660	     42.72161193	    -20.57325026	     -5.07088246	     19.79357035	      0.34546297	      4.29776217	     23.06809405	     -7.49999987	     26.19215744	     16.76319287	     13.50087841	     49.92501890	      0.87135596	     25.97671603	     -9.43701760	     -7.49999987	    -24.86704846	     -5.50358439	    -10.13459230	     66.37305038	      9.19892121	     67.25286899	    107.94089568	     86.52637215	     77.14688420	    -22.89290248	     67.49584941	    129.56047846	     90.27663512
      5.28333330	     -0.62024620	      4.10468383	     -1.25642413	      0.92273758	      0.90867794	      0.12266377	     41.74842719	    -20.07487624	     -5.54951773	     19.56058293	      0.34139658	      4.36583359	     22.12166033	     -7.49999987	     24.86128315	     16.07475098	     13.92523529	     48.34384776	      0.84375932	     25.40139124	     -9.79256930	     -7.49999987	    -24.26411982	     -5.12979393	     -9.89990159	     65.94713305	      9.23948737	     66.94950772	    107.35496568	     86.47979885	     76.64593619	    -22.78207171	     67.79053673	    129.05576614	     90.30735960
      5.30000000	     -0.30457925	      3.49866846	     -1.23278532	      0.92736986	      0.91634254	      0.11988477	     40.24447460	    -19.55921125	     -6.22244887	     18.98209046	      0.33129998	      4.35756061	     21.43918267	     -7.49999987	     23.08058415	     15.40820028	     14.75370205	     46.39894701	      0.80981439	     24.46006654	    -10.54585748	     -7.49999987	    -23.81143418	     -4.60936088	     -9.50886976	     65.73225193	      8.64112958	     67.10307892	    107.16854853	     86.43106765	     75.89081307	    -22.50047044	     68.23833641	    128.25802927	     90.37184502
      5.31666670	     -0.00354983	      2.98229907	     -1.22423011	      0.92397249	      0.92102219	      0.12199997	     38.96765770	    -19.06158075	     -6.80775385	     18.46910849	      0.32234675	      4.21301217	     20.71828542	     -7.49999987	     21.46532219	     14.76880326	     15.42202631	     44.45420880	      0.77587231	     23.43662058	    -11.23568292	     -7.49999987	    -23.51342432	     -4.26823134	     -9.34527578	     65.53522994	      8.33509482	     66.97439277	    107.26378173	     86.35010740	     75.74911605	    -22.10767021	     67.99001720	    127.63433117	     90.34275027
      5.33333330	      0.20595189	      2.29899932	     -1.39425044	      0.93263466	      0.92451174	      0.12212703	     37.69072606	    -18.27197489	     -7.17723905	     17.90486662	      0.31249887	      4.20315248	     19.87670104	     -7.49999987	     19.77925365	     13.85440731	     16.04654238	     42.41949345	      0.74035983	     22.63216993	    -11.57987797	     -7.49999987	    -22.76418491	     -3.86302193	     -9.23865357	     64.77459062	      8.26384670	     66.94072459	    107.62171697	     86.32374708	     75.03981275	    -21.73810208	     67.16990146	    127.41272688	     90.22886506
